<?xml version="1.0" encoding="utf-8"?>
<!-- Generator: Adobe Illustrator 27.0.0, SVG Export Plug-In . SVG Version: 6.00 Build 0)  -->
<svg version="1.1" id="Layer_1" xmlns="http://www.w3.org/2000/svg" xmlns:xlink="http://www.w3.org/1999/xlink" x="0px" y="0px"
	 viewBox="0 0 35.7 23.3" style="enable-background:new 0 0 35.7 23.3;" xml:space="preserve">
<style type="text/css">
	.st0{fill:#FFFFFF;}
</style>
<g>
	<path id="b" class="st0" d="M29.3,0.2c-0.1,0.1-0.2,0.3-0.2,0.4c0,0.3,0.3,0.7,1,1.3c2.6,2.5,3.9,5.6,3.9,9.4c0,4.1-1.4,7.4-4.1,10
		c-0.6,0.5-0.8,0.9-0.8,1.2c0,0.2,0.1,0.3,0.2,0.5c0.1,0.1,0.3,0.2,0.5,0.2c0.6,0,1.5-0.7,2.6-2.2c2.2-2.7,3.2-5.7,3.3-9.8
		c0.1-4.1-1.2-6.9-3.8-9.8c-0.9-1-1.7-1.6-2.2-1.6C29.7,0,29.5,0.1,29.3,0.2L29.3,0.2z"/>
</g>
<g>
	<path id="e" class="st0" d="M21.4,12c-1-0.2,3.1-5-4.1-10.8c0,0,0.9,3-3.8,9.7c-4.8,6.7,2.1,10.7,2.1,10.7s-3.2-1.7,0.5-7.8
		c0.7-1.1,1.6-2.1,2.6-4.4c0,0,1,1.4,0.5,4.3c-0.8,4.5,3.3,3.2,3.3,3.2c1.4,1.6-1.2,4.6-1.3,4.6s7.3-4.5,2-11.4
		C22.9,10.6,22.4,12.3,21.4,12L21.4,12z"/>
</g>
<g>
	<path id="f" class="st0" d="M7.6,0.2c0.1,0.1,0.2,0.3,0.2,0.4c0,0.3-0.3,0.7-1,1.3C4.3,4.5,2.9,7.6,3,11.3c0,4.1,1.4,7.4,4.1,10
		c0.6,0.5,0.8,0.9,0.8,1.2c0,0.2-0.1,0.4-0.2,0.5c-0.1,0.1-0.3,0.2-0.5,0.2c-0.6,0-1.5-0.7-2.6-2.2c-2.2-2.7-3.2-5.7-3.3-9.8
		C1.1,7.2,2.4,4.4,4.9,1.6C5.8,0.5,6.6,0,7.1,0C7.3,0,7.5,0.1,7.6,0.2L7.6,0.2z"/>
</g>
</svg>
