<?xml version="1.0" encoding="utf-8"?>
<!-- Generator: Adobe Illustrator 27.0.0, SVG Export Plug-In . SVG Version: 6.00 Build 0)  -->
<svg version="1.1" id="Layer_1" xmlns="http://www.w3.org/2000/svg" xmlns:xlink="http://www.w3.org/1999/xlink" x="0px" y="0px"
	 viewBox="0 0 29.5 32" style="enable-background:new 0 0 29.5 32;" xml:space="preserve">
<style type="text/css">
	.st0{fill:url(#SVGID_1_);}
	.st1{fill:#FFFFFF;}
</style>
<linearGradient id="SVGID_1_" gradientUnits="userSpaceOnUse" x1="14.7489" y1="33.6159" x2="14.7489" y2="1.8593" gradientTransform="matrix(1 0 0 -1 0 34)">
	<stop  offset="0" style="stop-color:#F48F41"/>
	<stop  offset="1" style="stop-color:#F05E2D"/>
</linearGradient>
<path class="st0" d="M26.5,26.2l-8.8,5c-1.8,1.1-4.1,1.1-6,0l-8.8-5c-1.9-1-3-3-3-5.1V10.9c0-2.1,1.1-4.1,3-5.1l8.8-5
	c1.8-1.1,4.1-1.1,6,0l8.8,5c1.8,1.1,3,3,3,5.1v10.1C29.5,23.2,28.4,25.1,26.5,26.2z"/>
<path class="st1" d="M11,17.4c0.2,0.1,0.4,0.2,0.5,0.4c0.1,0.2,0.2,0.4,0.3,0.7c0.1,0.3,0.1,0.6,0.1,0.9v2.2c0,0.6,0.1,1.1,0.2,1.6
	c0.2,0.5,0.4,1,0.8,1.4c0.4,0.4,0.9,0.8,1.5,1.2c0.6,0.3,1.3,0.6,2.2,0.8l0.8-1.9c-0.3-0.1-0.6-0.3-0.8-0.5
	c-0.2-0.2-0.4-0.4-0.5-0.7c-0.1-0.3-0.2-0.6-0.3-0.9c0-0.3-0.1-0.7-0.1-1.1v-2.2c0-0.7-0.2-1.4-0.6-2c-0.4-0.6-1-1.1-1.9-1.4
	c0.9-0.3,1.5-0.8,1.9-1.4c0.4-0.6,0.6-1.3,0.6-2v-2.2c0-0.4,0-0.7,0.1-1.1c0-0.3,0.1-0.6,0.3-0.9c0.1-0.3,0.3-0.5,0.5-0.7
	c0.2-0.2,0.5-0.4,0.8-0.5l-0.8-1.9c-0.9,0.2-1.6,0.5-2.2,0.8c-0.6,0.3-1.1,0.7-1.5,1.2s-0.6,0.9-0.8,1.4c-0.2,0.5-0.2,1.1-0.2,1.6
	v2.2c0,0.7-0.1,1.2-0.4,1.6c-0.3,0.4-0.7,0.6-1.3,0.6v2.5C10.5,17.2,10.8,17.3,11,17.4z"/>
</svg>
