<svg id="visual" viewBox="0 0 960 300" width="960" height="300" xmlns="http://www.w3.org/2000/svg" xmlns:xlink="http://www.w3.org/1999/xlink" version="1.1"><rect x="0" y="0" width="960" height="300" fill="#90204f"></rect><path d="M0 109L137 74L274 119L411 75L549 108L686 111L823 112L960 78L960 0L823 0L686 0L549 0L411 0L274 0L137 0L0 0Z" fill="#f5730a"></path><path d="M0 68L137 90L274 73L411 99L549 65L686 89L823 71L960 60L960 0L823 0L686 0L549 0L411 0L274 0L137 0L0 0Z" fill="#f16619"></path><path d="M0 43L137 69L274 70L411 77L549 76L686 62L823 65L960 56L960 0L823 0L686 0L549 0L411 0L274 0L137 0L0 0Z" fill="#eb5923"></path><path d="M0 33L137 52L274 37L411 54L549 33L686 28L823 52L960 29L960 0L823 0L686 0L549 0L411 0L274 0L137 0L0 0Z" fill="#e44c2b"></path><path d="M0 35L137 30L274 20L411 21L549 22L686 21L823 16L960 35L960 0L823 0L686 0L549 0L411 0L274 0L137 0L0 0Z" fill="#c03528"></path></svg>