<svg id="visual" viewBox="0 0 960 300" width="960" height="300" xmlns="http://www.w3.org/2000/svg" xmlns:xlink="http://www.w3.org/1999/xlink" version="1.1"><rect x="0" y="0" width="960" height="300" fill="#242424"></rect><path d="M0 128L17.8 126.5C35.7 125 71.3 122 106.8 118.5C142.3 115 177.7 111 213.2 113.5C248.7 116 284.3 125 320 120.5C355.7 116 391.3 98 426.8 90.8C462.3 83.7 497.7 87.3 533.2 89.3C568.7 91.3 604.3 91.7 640 92C675.7 92.3 711.3 92.7 746.8 95.3C782.3 98 817.7 103 853.2 107C888.7 111 924.3 114 942.2 115.5L960 117L960 0L942.2 0C924.3 0 888.7 0 853.2 0C817.7 0 782.3 0 746.8 0C711.3 0 675.7 0 640 0C604.3 0 568.7 0 533.2 0C497.7 0 462.3 0 426.8 0C391.3 0 355.7 0 320 0C284.3 0 248.7 0 213.2 0C177.7 0 142.3 0 106.8 0C71.3 0 35.7 0 17.8 0L0 0Z" fill="#fa7268"></path><path d="M0 64L17.8 70.3C35.7 76.7 71.3 89.3 106.8 91.3C142.3 93.3 177.7 84.7 213.2 80C248.7 75.3 284.3 74.7 320 76C355.7 77.3 391.3 80.7 426.8 81.5C462.3 82.3 497.7 80.7 533.2 77.5C568.7 74.3 604.3 69.7 640 69.5C675.7 69.3 711.3 73.7 746.8 79.8C782.3 86 817.7 94 853.2 98.7C888.7 103.3 924.3 104.7 942.2 105.3L960 106L960 0L942.2 0C924.3 0 888.7 0 853.2 0C817.7 0 782.3 0 746.8 0C711.3 0 675.7 0 640 0C604.3 0 568.7 0 533.2 0C497.7 0 462.3 0 426.8 0C391.3 0 355.7 0 320 0C284.3 0 248.7 0 213.2 0C177.7 0 142.3 0 106.8 0C71.3 0 35.7 0 17.8 0L0 0Z" fill="#e66064"></path><path d="M0 75L17.8 77C35.7 79 71.3 83 106.8 84.7C142.3 86.3 177.7 85.7 213.2 79.2C248.7 72.7 284.3 60.3 320 57C355.7 53.7 391.3 59.3 426.8 65.8C462.3 72.3 497.7 79.7 533.2 77.3C568.7 75 604.3 63 640 61.5C675.7 60 711.3 69 746.8 73C782.3 77 817.7 76 853.2 74.2C888.7 72.3 924.3 69.7 942.2 68.3L960 67L960 0L942.2 0C924.3 0 888.7 0 853.2 0C817.7 0 782.3 0 746.8 0C711.3 0 675.7 0 640 0C604.3 0 568.7 0 533.2 0C497.7 0 462.3 0 426.8 0C391.3 0 355.7 0 320 0C284.3 0 248.7 0 213.2 0C177.7 0 142.3 0 106.8 0C71.3 0 35.7 0 17.8 0L0 0Z" fill="#d24f5f"></path><path d="M0 50L17.8 53.7C35.7 57.3 71.3 64.7 106.8 65.5C142.3 66.3 177.7 60.7 213.2 60.5C248.7 60.3 284.3 65.7 320 66.5C355.7 67.3 391.3 63.7 426.8 58.2C462.3 52.7 497.7 45.3 533.2 45.7C568.7 46 604.3 54 640 59.5C675.7 65 711.3 68 746.8 70.2C782.3 72.3 817.7 73.7 853.2 73.7C888.7 73.7 924.3 72.3 942.2 71.7L960 71L960 0L942.2 0C924.3 0 888.7 0 853.2 0C817.7 0 782.3 0 746.8 0C711.3 0 675.7 0 640 0C604.3 0 568.7 0 533.2 0C497.7 0 462.3 0 426.8 0C391.3 0 355.7 0 320 0C284.3 0 248.7 0 213.2 0C177.7 0 142.3 0 106.8 0C71.3 0 35.7 0 17.8 0L0 0Z" fill="#bc3f5b"></path><path d="M0 26L17.8 30.8C35.7 35.7 71.3 45.3 106.8 48.7C142.3 52 177.7 49 213.2 44.8C248.7 40.7 284.3 35.3 320 34.5C355.7 33.7 391.3 37.3 426.8 39.5C462.3 41.7 497.7 42.3 533.2 39C568.7 35.7 604.3 28.3 640 28.8C675.7 29.3 711.3 37.7 746.8 41C782.3 44.3 817.7 42.7 853.2 40.2C888.7 37.7 924.3 34.3 942.2 32.7L960 31L960 0L942.2 0C924.3 0 888.7 0 853.2 0C817.7 0 782.3 0 746.8 0C711.3 0 675.7 0 640 0C604.3 0 568.7 0 533.2 0C497.7 0 462.3 0 426.8 0C391.3 0 355.7 0 320 0C284.3 0 248.7 0 213.2 0C177.7 0 142.3 0 106.8 0C71.3 0 35.7 0 17.8 0L0 0Z" fill="#a62f55"></path><path d="M0 5L17.8 6.7C35.7 8.3 71.3 11.7 106.8 15.2C142.3 18.7 177.7 22.3 213.2 23C248.7 23.7 284.3 21.3 320 20.7C355.7 20 391.3 21 426.8 21.8C462.3 22.7 497.7 23.3 533.2 25.5C568.7 27.7 604.3 31.3 640 28.8C675.7 26.3 711.3 17.7 746.8 16.5C782.3 15.3 817.7 21.7 853.2 25.8C888.7 30 924.3 32 942.2 33L960 34L960 0L942.2 0C924.3 0 888.7 0 853.2 0C817.7 0 782.3 0 746.8 0C711.3 0 675.7 0 640 0C604.3 0 568.7 0 533.2 0C497.7 0 462.3 0 426.8 0C391.3 0 355.7 0 320 0C284.3 0 248.7 0 213.2 0C177.7 0 142.3 0 106.8 0C71.3 0 35.7 0 17.8 0L0 0Z" fill="#90204f"></path></svg>