<?xml version="1.0" encoding="utf-8"?>
<!-- Generator: Adobe Illustrator 27.0.0, SVG Export Plug-In . SVG Version: 6.00 Build 0)  -->
<svg version="1.1" id="Layer_1" xmlns="http://www.w3.org/2000/svg" xmlns:xlink="http://www.w3.org/1999/xlink" x="0px" y="0px"
	 viewBox="0 0 552.8 198.7" style="enable-background:new 0 0 552.8 198.7;" xml:space="preserve">
<style type="text/css">
	.st0{fill:#FFFFFF;}
</style>
<g>
	<g>
		<path class="st0" d="M275.4,61.4l26.3-1.7c0.6,4.3,1.7,7.5,3.5,9.8c2.9,3.6,6.9,5.4,12.2,5.4c3.9,0,7-0.9,9.1-2.8
			c2-1.6,3.2-3.9,3.2-6.4c0-2.4-1.1-4.7-3-6.2c-2-1.8-6.7-3.6-14.1-5.2c-12.1-2.7-20.8-6.3-25.9-10.9c-5.1-4.3-8-10.6-7.8-17.3
			c0-4.6,1.4-9.2,4-13c3-4.3,7.1-7.7,12-9.6c5.3-2.3,12.7-3.5,22-3.5c11.4,0,20.1,2.1,26.1,6.4s9.6,11,10.7,20.3l-26,1.5
			c-0.7-4-2.1-6.9-4.4-8.8s-5.3-2.8-9.2-2.8c-3.2,0-5.6,0.7-7.2,2c-1.6,1.2-2.5,3-2.4,5c0,1.5,0.8,2.9,2,3.8
			c1.3,1.2,4.4,2.3,9.3,3.3c12.1,2.6,20.7,5.2,26,7.9s9.1,6,11.4,9.9c2.4,4,3.6,8.6,3.6,13.2c0,5.6-1.6,11.2-4.8,15.9
			c-3.3,4.9-7.9,8.7-13.3,11c-5.7,2.5-12.9,3.8-21.5,3.8c-15.2,0-25.7-2.9-31.6-8.8C279.5,77.9,276.2,70.4,275.4,61.4L275.4,61.4z
			 M6.3,91V1.5h46.1c8.5,0,15.1,0.7,19.6,2.2c4.4,1.4,8.3,4.3,10.9,8.1c2.9,4.3,4.3,9.3,4.2,14.5c0.1,4.5-1,8.9-3.2,12.8
			c-2.1,3.6-5.1,6.7-8.7,8.8c-3,1.7-6.3,2.9-9.7,3.5c2.5,0.7,5,1.9,7.2,3.3c1.7,1.4,3.1,2.9,4.4,4.7c1.5,1.7,2.7,3.6,3.8,5.5
			l13.4,26H63L48.2,63.6c-1.9-3.5-3.5-5.8-5-6.9c-2-1.4-4.4-2.1-6.8-2.1H34V91H6.3z M34,37.8h11.7c2.5-0.2,4.9-0.6,7.3-1.2
			c1.8-0.3,3.4-1.3,4.5-2.8c1.2-1.5,1.8-3.3,1.7-5.2c0.2-2.5-0.9-5-2.8-6.6c-1.8-1.5-5.3-2.3-10.3-2.3H34V37.8z M0,167.6l26.3-1.6
			c0.6,4.3,1.7,7.5,3.5,9.8c2.8,3.6,6.9,5.4,12.2,5.4c3.9,0,7-0.9,9.1-2.8c2-1.6,3.2-3.9,3.2-6.4c0-2.4-1.1-4.7-3-6.2
			c-2-1.8-6.7-3.6-14.2-5.2c-12.1-2.7-20.8-6.4-25.9-10.9c-5.1-4.3-8-10.6-7.8-17.3c0-4.6,1.4-9.2,4-13c3-4.3,7.1-7.7,12-9.6
			c5.3-2.3,12.7-3.5,22-3.5c11.4,0,20.1,2.1,26.1,6.4s9.6,11,10.7,20.3l-26,1.5c-0.7-4-2.1-6.9-4.4-8.8s-5.3-2.8-9.2-2.7
			c-3.2,0-5.6,0.7-7.2,2c-1.6,1.2-2.5,3-2.4,5c0,1.5,0.8,2.9,2,3.9c1.3,1.2,4.4,2.3,9.3,3.3c12.1,2.6,20.7,5.2,26,7.9
			c5.3,2.7,9.1,6,11.4,9.9c2.4,4,3.6,8.6,3.6,13.2c0,5.6-1.6,11.2-4.8,15.9c-3.3,4.9-7.9,8.7-13.3,11c-5.7,2.5-12.9,3.8-21.5,3.8
			c-15.2,0-25.7-2.9-31.6-8.8S0.9,176.6,0,167.6z M163,160.6l24.2,7.3c-1.3,6.1-4,11.9-7.7,17c-3.4,4.5-7.9,8-13,10.3
			c-5.2,2.3-11.8,3.5-19.8,3.5c-9.7,0-17.7-1.4-23.8-4.2s-11.5-7.8-16-14.9c-4.5-7.1-6.7-16.2-6.7-27.3c0-14.8,3.9-26.2,11.8-34.1
			c7.9-8,19-11.9,33.4-11.9c11.3,0,20.1,2.3,26.6,6.8c6.4,4.6,11.2,11.6,14.4,21l-24.4,5.4c-0.6-2.1-1.5-4.2-2.7-6
			c-1.5-2.1-3.4-3.7-5.7-4.9c-2.3-1.2-4.9-1.7-7.5-1.7c-6.3,0-11.1,2.5-14.4,7.6c-2.5,3.7-3.8,9.6-3.8,17.6c0,9.9,1.5,16.7,4.5,20.4
			c3,3.7,7.2,5.5,12.7,5.5c5.3,0,9.3-1.5,12-4.4C159.8,170.5,161.8,166.2,163,160.6L163,160.6z M208.5,107.7h27.6V139h30.2v-31.3
			h27.8v89.4h-27.8V161h-30.2v36.2h-27.6V107.7z M311.3,152.5c0-14.6,4.1-26,12.2-34.1s19.5-12.2,34-12.2c14.9,0,26.3,4,34.4,12
			c8.1,8,12.1,19.2,12.1,33.6c0,10.5-1.8,19-5.3,25.7c-3.4,6.6-8.7,12-15.2,15.6c-6.7,3.7-15,5.6-24.9,5.6c-10.1,0-18.4-1.6-25-4.8
			c-6.8-3.4-12.4-8.7-16.1-15.2C313.4,171.7,311.3,162.9,311.3,152.5L311.3,152.5z M338.9,152.6c0,9,1.7,15.5,5,19.5
			s7.9,5.9,13.7,5.9c5.9,0,10.5-1.9,13.8-5.8c3.3-3.9,4.9-10.8,4.9-20.8c0-8.4-1.7-14.6-5.1-18.5s-8-5.8-13.8-5.8
			c-5.1-0.2-10,2-13.4,5.9C340.6,137,338.9,143.5,338.9,152.6L338.9,152.6z"/>
		<path class="st0" d="M392.3,152.5c0-14.6,4.1-26,12.2-34.1c8.1-8.1,19.5-12.2,34-12.2c14.9,0,26.4,4,34.4,12s12.1,19.2,12.1,33.6
			c0,10.5-1.8,19-5.3,25.7c-3.4,6.6-8.7,12-15.2,15.6c-6.7,3.7-15,5.6-24.9,5.6c-10.1,0-18.4-1.6-25-4.8
			c-6.8-3.4-12.4-8.7-16.1-15.2C394.4,171.7,392.3,163,392.3,152.5L392.3,152.5z M419.9,152.6c0,9,1.7,15.5,5,19.5
			c3.3,3.9,7.9,5.9,13.7,5.9c5.9,0,10.5-1.9,13.8-5.8c3.3-3.9,4.9-10.8,4.9-20.8c0-8.4-1.7-14.6-5.1-18.5c-3.4-3.9-8-5.8-13.8-5.8
			c-5.1-0.2-10.1,2-13.4,5.9C421.6,137,419.9,143.5,419.9,152.6L419.9,152.6z"/>
		<path class="st0" d="M482.1,107.7h27.6v67.4h43.1v22h-70.8V107.7z"/>
	</g>
</g>
</svg>
