<svg id="visual" viewBox="0 0 960 300" width="960" height="300" xmlns="http://www.w3.org/2000/svg" xmlns:xlink="http://www.w3.org/1999/xlink" version="1.1"><path d="M0 43L14.5 43C29 43 58 43 87.2 42C116.3 41 145.7 39 174.8 39C204 39 233 41 262 38.5C291 36 320 29 349 32.5C378 36 407 50 436.2 50.5C465.3 51 494.7 38 523.8 31C553 24 582 23 611 22.5C640 22 669 22 698 23C727 24 756 26 785.2 31.5C814.3 37 843.7 46 872.8 52C902 58 931 61 945.5 62.5L960 64L960 0L945.5 0C931 0 902 0 872.8 0C843.7 0 814.3 0 785.2 0C756 0 727 0 698 0C669 0 640 0 611 0C582 0 553 0 523.8 0C494.7 0 465.3 0 436.2 0C407 0 378 0 349 0C320 0 291 0 262 0C233 0 204 0 174.8 0C145.7 0 116.3 0 87.2 0C58 0 29 0 14.5 0L0 0Z" fill="#3c31dd"></path><path d="M0 136L14.5 132.5C29 129 58 122 87.2 121.5C116.3 121 145.7 127 174.8 130C204 133 233 133 262 127.5C291 122 320 111 349 109.5C378 108 407 116 436.2 118.5C465.3 121 494.7 118 523.8 116.5C553 115 582 115 611 113.5C640 112 669 109 698 105.5C727 102 756 98 785.2 96.5C814.3 95 843.7 96 872.8 98.5C902 101 931 105 945.5 107L960 109L960 62L945.5 60.5C931 59 902 56 872.8 50C843.7 44 814.3 35 785.2 29.5C756 24 727 22 698 21C669 20 640 20 611 20.5C582 21 553 22 523.8 29C494.7 36 465.3 49 436.2 48.5C407 48 378 34 349 30.5C320 27 291 34 262 36.5C233 39 204 37 174.8 37C145.7 37 116.3 39 87.2 40C58 41 29 41 14.5 41L0 41Z" fill="#392aa4"></path><path d="M0 166L14.5 163.5C29 161 58 156 87.2 157C116.3 158 145.7 165 174.8 170.5C204 176 233 180 262 173C291 166 320 148 349 143C378 138 407 146 436.2 146.5C465.3 147 494.7 140 523.8 140C553 140 582 147 611 150.5C640 154 669 154 698 151.5C727 149 756 144 785.2 139C814.3 134 843.7 129 872.8 130C902 131 931 138 945.5 141.5L960 145L960 107L945.5 105C931 103 902 99 872.8 96.5C843.7 94 814.3 93 785.2 94.5C756 96 727 100 698 103.5C669 107 640 110 611 111.5C582 113 553 113 523.8 114.5C494.7 116 465.3 119 436.2 116.5C407 114 378 106 349 107.5C320 109 291 120 262 125.5C233 131 204 131 174.8 128C145.7 125 116.3 119 87.2 119.5C58 120 29 127 14.5 130.5L0 134Z" fill="#30226f"></path><path d="M0 262L14.5 257.5C29 253 58 244 87.2 238.5C116.3 233 145.7 231 174.8 233C204 235 233 241 262 243C291 245 320 243 349 246C378 249 407 257 436.2 262C465.3 267 494.7 269 523.8 269C553 269 582 267 611 260C640 253 669 241 698 234.5C727 228 756 227 785.2 228.5C814.3 230 843.7 234 872.8 235C902 236 931 234 945.5 233L960 232L960 143L945.5 139.5C931 136 902 129 872.8 128C843.7 127 814.3 132 785.2 137C756 142 727 147 698 149.5C669 152 640 152 611 148.5C582 145 553 138 523.8 138C494.7 138 465.3 145 436.2 144.5C407 144 378 136 349 141C320 146 291 164 262 171C233 178 204 174 174.8 168.5C145.7 163 116.3 156 87.2 155C58 154 29 159 14.5 161.5L0 164Z" fill="#231a3d"></path><path d="M0 301L14.5 301C29 301 58 301 87.2 301C116.3 301 145.7 301 174.8 301C204 301 233 301 262 301C291 301 320 301 349 301C378 301 407 301 436.2 301C465.3 301 494.7 301 523.8 301C553 301 582 301 611 301C640 301 669 301 698 301C727 301 756 301 785.2 301C814.3 301 843.7 301 872.8 301C902 301 931 301 945.5 301L960 301L960 230L945.5 231C931 232 902 234 872.8 233C843.7 232 814.3 228 785.2 226.5C756 225 727 226 698 232.5C669 239 640 251 611 258C582 265 553 267 523.8 267C494.7 267 465.3 265 436.2 260C407 255 378 247 349 244C320 241 291 243 262 241C233 239 204 233 174.8 231C145.7 229 116.3 231 87.2 236.5C58 242 29 251 14.5 255.5L0 260Z" fill="#101010"></path></svg>