<?xml version="1.0" encoding="utf-8"?>
<!-- Generator: Adobe Illustrator 27.0.0, SVG Export Plug-In . SVG Version: 6.00 Build 0)  -->
<svg version="1.1" id="Layer_1" xmlns="http://www.w3.org/2000/svg" xmlns:xlink="http://www.w3.org/1999/xlink" x="0px" y="0px"
	 viewBox="0 0 300 300" style="enable-background:new 0 0 300 300;" xml:space="preserve">
<style type="text/css">
	.st0{fill:#F7931E;stroke:#D4145A;stroke-width:8;stroke-linecap:round;stroke-miterlimit:10;}
</style>
<path class="st0" d="M245,243.4l-72.8-17.9c-2.8-0.7-5.8,0.1-7.9,2L109,278.2c-5.2,4.8-13.6,1.6-14.2-5.3l-6.4-76.8
	c-0.2-2.6-1.7-5-4-6.4l-66.1-38.9c-5.9-3.5-5.2-12.1,1.2-14.8l69.6-29.2c2.6-1.1,4.5-3.4,5.1-6.1l15.2-74.4
	c1.4-6.9,10.3-9.2,14.9-3.8l49,58c1.8,2.1,4.6,3.2,7.4,2.9l75.1-7.8c6.9-0.7,11.6,6.5,8.1,12.4L224.2,154c-1.4,2.3-1.6,5.1-0.5,7.5
	l31.2,70.4C257.7,238.3,251.8,245.1,245,243.4z"/>
</svg>
