<?xml version="1.0" encoding="utf-8"?>
<!-- Generator: Adobe Illustrator 27.0.0, SVG Export Plug-In . SVG Version: 6.00 Build 0)  -->
<svg version="1.1" id="Layer_2" xmlns="http://www.w3.org/2000/svg" xmlns:xlink="http://www.w3.org/1999/xlink" x="0px" y="0px"
	 viewBox="0 0 300 300" style="enable-background:new 0 0 300 300;" xml:space="preserve">
<style type="text/css">
	.st0{fill:#FAAF3B;}
	.st1{fill:#F6921E;}
	.st2{fill:#FFFFFF;}
</style>
<polygon class="st0" points="135.8,93 118.3,99.9 79.4,39.1 119,24.9 "/>
<polygon class="st0" points="120.6,118 107.6,127 40.6,97.1 72.4,67.1 "/>
<polygon class="st0" points="101.4,155.9 105.9,174.2 38.6,211.7 31.7,163.4 "/>
<polygon class="st0" points="96.1,130.3 93.3,147.8 42.3,153.1 45,115.1 "/>
<polygon class="st0" points="202.4,144.8 202.7,127.1 260,110.4 271.8,146 "/>
<polygon class="st0" points="195.9,121.9 182.6,107.5 221.4,66.4 248.4,95.4 "/>
<polygon class="st0" points="114.1,171.1 128.6,183 97.6,239.6 62.5,218.5 "/>
<polygon class="st0" points="128.1,193.3 146.6,196.7 146.9,269 105.9,259.8 "/>
<polygon class="st0" points="155.4,196.5 168.9,188.8 200.3,239.6 161.3,257 "/>
<polygon class="st0" points="181.1,188.5 196.6,177.9 253.9,225.2 220.3,239.6 "/>
<polygon class="st0" points="193.9,168.1 200.3,153.1 255,157.3 249.8,198.9 "/>
<polygon class="st0" points="159.4,91.9 140.2,91.2 133.6,41.6 169.3,37.5 "/>
<polygon class="st0" points="179.7,103.4 162.9,94.3 188.8,28.9 222.5,48.5 "/>
<circle class="st1" cx="150" cy="147.8" r="56.7"/>
</svg>
