<svg id="visual" viewBox="0 0 960 300" width="960" height="300" xmlns="http://www.w3.org/2000/svg" xmlns:xlink="http://www.w3.org/1999/xlink" version="1.1"><rect x="0" y="0" width="960" height="300" fill="#242424"></rect><path d="M0 212L32 202.8C64 193.7 128 175.3 192 181.5C256 187.7 320 218.3 384 228C448 237.7 512 226.3 576 212.7C640 199 704 183 768 182.5C832 182 896 197 928 204.5L960 212L960 301L928 301C896 301 832 301 768 301C704 301 640 301 576 301C512 301 448 301 384 301C320 301 256 301 192 301C128 301 64 301 32 301L0 301Z" fill="#101010" stroke-linecap="round" stroke-linejoin="miter"></path></svg>